<svg xmlns="http://www.w3.org/2000/svg" display = "none">
    <symbol viewBox="0 0 37 37" id="settings">
        <g>
            <path id="Vector" d="M18.5003 34.8876C17.4674 34.8876 16.4191 34.6564 15.602 34.1785L7.12286 29.2914C3.66949 26.9634 3.45367 26.6089 3.45367 22.9551L3.45367 14.0443C3.45367 10.3905 3.65411 10.0359 7.04578 7.73889L15.5865 2.80554C17.2053 1.86511 19.749 1.86511 21.3678 2.80554L29.8778 7.70801C33.3311 10.0359 33.5469 10.3905 33.5469 14.0443L33.5469 22.9397C33.5469 26.5934 33.3466 26.9481 29.9549 29.2451L21.4141 34.1785C20.5815 34.6564 19.5332 34.8876 18.5003 34.8876ZM18.5003 4.42426C17.8528 4.42426 17.2207 4.54761 16.7736 4.80969L8.29449 9.71222C5.78162 11.408 5.78162 11.408 5.78162 14.0443L5.78162 22.9397C5.78162 25.5759 5.78162 25.5759 8.3562 27.3181L16.7736 32.1743C17.6832 32.6984 19.3328 32.6984 20.2424 32.1743L28.7216 27.2718C31.2191 25.5759 31.2191 25.5759 31.2191 22.9397L31.2191 14.0443C31.2191 11.408 31.2191 11.408 28.6445 9.66595L20.227 4.80969C19.7799 4.54761 19.1478 4.42426 18.5003 4.42426Z" />
            <path id="Vector" d="M18.5 24.2812C15.3088 24.2812 12.7188 21.6912 12.7188 18.5C12.7188 15.3088 15.3088 12.7188 18.5 12.7188C21.6912 12.7188 24.2812 15.3088 24.2812 18.5C24.2812 21.6912 21.6912 24.2812 18.5 24.2812ZM18.5 15.0312C16.5883 15.0312 15.0312 16.5883 15.0312 18.5C15.0312 20.4117 16.5883 21.9688 18.5 21.9688C20.4117 21.9688 21.9688 20.4117 21.9688 18.5C21.9688 16.5883 20.4117 15.0312 18.5 15.0312Z" />
        </g>
    </symbol>

    <symbol viewBox="0 0 24 24" id="dashboard">
        <g>
		    <path id="Union" d="M9.00006 22.7499L15.0001 22.7499Q17.0029 22.7499 18.4175 22.328C19.4294 22.0262 20.2587 21.552 20.9054 20.9053Q21.8755 19.9352 22.3281 18.4174C22.6094 17.4743 22.7501 16.3352 22.7501 14.9999L22.7501 8.99994Q22.7501 6.9971 22.3281 5.58246Q21.8755 4.0647 20.9054 3.0946C20.2587 2.44788 19.4294 1.97363 18.4175 1.67184Q17.0029 1.24994 15.0001 1.24994L9.00006 1.24994Q6.99719 1.24994 5.58258 1.67184Q4.06482 2.12451 3.09473 3.0946Q2.12463 4.0647 1.672 5.58246Q1.25006 6.9971 1.25006 8.99994L1.25006 14.9999Q1.25006 17.0028 1.672 18.4174Q2.12463 19.9352 3.09473 20.9053C3.74146 21.552 4.57074 22.0262 5.58258 22.328C6.52563 22.6093 7.66479 22.7499 9.00006 22.7499ZM17.9888 20.8906C17.1856 21.1302 16.1893 21.2499 15.0001 21.2499L9.00006 21.2499C7.81079 21.2499 6.81451 21.1302 6.01129 20.8906Q4.85718 20.5464 4.1554 19.8446C3.68756 19.3767 3.33887 18.7581 3.10938 17.9887Q2.75006 16.7839 2.75006 14.9999L2.75006 8.99994Q2.75006 7.216 3.10938 6.01117Q3.45361 4.85706 4.1554 4.15527Q4.85718 3.45349 6.01129 3.10928Q7.21613 2.74994 9.00006 2.74994L15.0001 2.74994Q16.784 2.74994 17.9888 3.10928C18.7582 3.33875 19.3769 3.68741 19.8447 4.15527C20.3126 4.62314 20.6613 5.24176 20.8907 6.01117C21.1302 6.81439 21.2501 7.81067 21.2501 8.99994L21.2501 14.9999C21.2501 16.1892 21.1303 17.1855 20.8907 17.9887C20.6613 18.7581 20.3126 19.3768 19.8447 19.8446C19.3769 20.3125 18.7582 20.6611 17.9888 20.8906ZM12.4644 15.5013Q12.3948 15.4886 12.3256 15.4739L10.0457 17.745C9.87018 17.9269 9.6441 18.0631 9.36743 18.1538C9.09485 18.2432 8.83246 18.2691 8.5802 18.2318L7.38171 18.0721C7.19904 18.0481 6.94257 17.9449 6.76898 17.8519C6.64215 17.7752 6.52509 17.6823 6.41785 17.5732C6.33264 17.4866 6.25732 17.3935 6.19183 17.2939C6.16058 17.2465 6.13159 17.1975 6.10486 17.1472C6.02112 16.9894 5.9585 16.7913 5.92883 16.6239L5.76666 15.409C5.72992 15.1707 5.75824 14.9126 5.85168 14.6346C5.94037 14.3708 6.08252 14.1361 6.24976 13.9595L8.52771 11.6816C8.51697 11.6299 8.50702 11.5779 8.49792 11.5259C8.45831 11.2992 8.43469 11.0696 8.42694 10.8373C8.41895 10.597 8.42816 10.3585 8.45459 10.122C8.47656 9.92499 8.51056 9.72931 8.55646 9.53497C8.61316 9.29471 8.68707 9.06131 8.77808 8.83484C8.85205 8.65073 8.93738 8.47116 9.034 8.29614C9.12378 8.13348 9.22229 7.97678 9.32928 7.82632Q9.56641 7.49295 9.85974 7.19955Q10.2341 6.82526 10.6689 6.54492C10.9247 6.38 11.1962 6.23947 11.4835 6.12332C11.7566 6.01288 12.0353 5.92789 12.3192 5.8685C12.6493 5.79944 12.9867 5.76489 13.3314 5.76489C13.668 5.76489 13.998 5.79785 14.3213 5.8638C14.6132 5.92334 14.8995 6.00977 15.1805 6.12308C15.4648 6.23773 15.7339 6.37619 15.9877 6.53842C16.2818 6.72635 16.5555 6.94617 16.8088 7.19791C17.056 7.44366 17.2726 7.70935 17.4584 7.99506C17.6261 8.25272 17.7687 8.52661 17.8864 8.8168C17.9951 9.08487 18.0791 9.35825 18.1384 9.63684Q18.2451 10.1382 18.2451 10.6624C18.2451 10.9958 18.2127 11.3227 18.1479 11.643C18.0883 11.9377 18.0013 12.2269 17.8868 12.5105C17.7722 12.7948 17.6337 13.0638 17.4714 13.3177C17.2835 13.6117 17.0637 13.8853 16.8121 14.1386C16.5977 14.353 16.3677 14.5448 16.1223 14.7142C15.991 14.8048 15.8552 14.889 15.715 14.9667C15.5247 15.0722 15.3289 15.1645 15.1281 15.2431C14.9166 15.326 14.6993 15.3939 14.4762 15.447C14.2628 15.4978 14.048 15.534 13.8317 15.5558C13.6132 15.5777 13.3932 15.5849 13.1717 15.5772Q12.8134 15.5648 12.4644 15.5013ZM11.5708 14.1085C11.6696 14.0101 11.7868 13.9443 11.9224 13.9113Q12.0239 13.8864 12.1246 13.8897L12.1247 13.8897C12.1918 13.892 12.2587 13.9035 12.3253 13.9245C12.6135 14.0152 12.9035 14.0668 13.1952 14.0794C13.5046 14.0928 13.8158 14.0623 14.129 13.9877C14.427 13.9168 14.7059 13.8108 14.9656 13.6696C15.2493 13.5154 15.5101 13.3192 15.7482 13.0812C15.9286 12.8996 16.0854 12.7031 16.2188 12.4917C16.3266 12.3206 16.4189 12.1398 16.4958 11.9492C16.5739 11.7556 16.6337 11.5583 16.6751 11.3571C16.7217 11.1304 16.7451 10.8988 16.7451 10.6624C16.7451 10.4105 16.7186 10.1644 16.6656 9.92416C16.6248 9.73947 16.5684 9.55823 16.4963 9.38046C16.4171 9.18509 16.3212 8.99994 16.209 8.82578C16.0787 8.62347 15.9261 8.43552 15.7514 8.26184C15.5698 8.08133 15.3733 7.92447 15.1619 7.7912C14.9908 7.68338 14.8099 7.59103 14.6194 7.51419C14.4284 7.43716 14.2338 7.37799 14.0354 7.33664C13.8057 7.28882 13.571 7.26489 13.3314 7.26489C13.084 7.26489 12.8418 7.2905 12.6054 7.34143C12.4153 7.38245 12.2288 7.43994 12.0458 7.51395C11.8528 7.59195 11.6698 7.68613 11.4972 7.79608C11.2903 7.92786 11.0981 8.08258 10.9204 8.26022C10.6875 8.49316 10.4948 8.74829 10.3424 9.02551Q10.1243 9.42239 10.0163 9.87979C9.94543 10.1799 9.91443 10.4788 9.92334 10.7765C9.9325 11.082 9.9837 11.3863 10.077 11.6893C10.1178 11.8221 10.1215 11.9558 10.088 12.0907C10.0545 12.2255 9.98865 12.342 9.89044 12.4402L7.30981 15.0297C7.2959 15.0544 7.26379 15.1802 7.25354 15.2108L7.41138 16.3958Q7.42029 16.4532 7.48737 16.5215C7.50977 16.5443 7.56586 16.5739 7.58923 16.5865L8.82196 16.7461C8.84686 16.7433 8.95349 16.6974 8.98077 16.6885L9.39331 16.2776L9.06665 15.9471C8.77142 15.6484 8.77411 15.1817 9.07288 14.8865C9.37158 14.5912 9.83826 14.5939 10.1335 14.8927L10.4561 15.219L11.5708 14.1085ZM14.4037 10.7C14.4037 10.14 13.9637 9.69995 13.4037 9.69995C12.8437 9.69995 12.3947 10.14 12.3947 10.7C12.3947 11.2599 12.8437 11.7 13.4037 11.7C13.9637 11.7 14.4037 11.2599 14.4037 10.7Z" />
	    </g>
    </symbol>

    <symbol viewBox="0 0 24 24" id="product">
	    <path id="Union" d="M7.75 21.5C2.32001 21.5 0 19.18 0 13.75L0 7.75C0 2.32001 2.32001 0 7.75 0L13.75 0C19.18 0 21.5 2.32001 21.5 7.75L21.5 13.75C21.5 19.18 19.18 21.5 13.75 21.5L7.75 21.5ZM7.75 1.5C3.14001 1.5 1.5 3.14001 1.5 7.75L1.5 13.75C1.5 18.36 3.14001 20 7.75 20L13.75 20C18.36 20 20 18.36 20 13.75L20 7.75C20 3.14001 18.36 1.5 13.75 1.5L7.75 1.5ZM9.14026 17.1198C9.60028 17.3698 10.1702 17.4998 10.7502 17.4998C11.3302 17.4998 11.9002 17.3798 12.3602 17.1198L15.5602 15.3398C16.5102 14.7998 17.2603 13.5298 17.2603 12.4398L17.2603 9.0498C17.2603 7.94983 16.5202 6.67981 15.5602 6.14981L12.3602 4.36981C11.4402 3.8598 10.0603 3.8598 9.14026 4.36981L5.94025 6.14981C4.99023 6.68982 4.24023 7.95981 4.24023 9.0498L4.24023 12.4398C4.24023 13.5398 4.98022 14.8098 5.94025 15.3398L9.14026 17.1198ZM9.87018 5.68982C10.1002 5.55981 10.4202 5.49982 10.7502 5.49982C11.0802 5.49982 11.4002 5.55981 11.6302 5.68982L14.8302 7.46982C14.9315 7.5256 15.0306 7.60193 15.1241 7.69281L10.7406 10.2297L6.37134 7.6987C6.46631 7.60507 6.5672 7.52661 6.67023 7.46982L9.87018 5.68982ZM5.74023 9.0563L10 11.5157L10 15.8624C9.9541 15.8436 9.91071 15.8227 9.87018 15.7998L6.67023 14.0198C6.18024 13.7498 5.74023 12.9998 5.74023 12.4398L5.74023 9.0563ZM11.5 15.8626C11.546 15.8437 11.5896 15.8228 11.6302 15.7998L14.8302 14.0198C15.3202 13.7498 15.7603 12.9898 15.7603 12.4398L15.7603 9.0498L15.7603 9.04822L11.5 11.5104L11.5 15.8626Z"  fill-rule="evenodd"/>
    </symbol>

    <symbol viewBox="0 0 24 24" id="customers">
    	<path id="Vector 2" d="M7.75 0L13.75 0C15.0853 0 16.2244 0.140625 17.1675 0.421906C18.1793 0.723694 19.0086 1.19794 19.6553 1.84467C20.3021 2.49139 20.7763 3.32068 21.0781 4.33252C21.3594 5.2756 21.5 6.41476 21.5 7.75L21.5 13.75C21.5 14.7543 21.4215 15.6442 21.2645 16.4196C21.0984 17.2398 20.8402 17.9542 20.4901 18.5628C20.2664 18.9517 20.0024 19.3012 19.6984 19.6114C19.027 20.2964 18.1599 20.7896 17.0969 21.0909C16.1677 21.3701 15.0688 21.4998 13.7506 21.4998L7.75061 21.4998C6.43921 21.4998 5.34491 21.3715 4.41876 21.0952C3.35461 20.794 2.47351 20.297 1.80151 19.6113C1.4975 19.3011 1.23364 18.9516 1.00995 18.5628C0.65979 17.9542 0.401611 17.2398 0.235535 16.4196C0.0784912 15.6442 0 14.7543 0 13.75L0 7.75C0 6.41476 0.140625 5.2756 0.421936 4.33252C0.723694 3.32068 1.19794 2.49139 1.84467 1.84467C2.49139 1.19794 3.32068 0.723694 4.33252 0.421906C5.27557 0.140625 6.41473 0 7.75 0ZM18.1951 18.939C17.9767 19.1003 17.733 19.2424 17.4642 19.3654C17.345 18.9513 17.17 18.5505 16.9393 18.1629C16.5627 17.5524 16.0222 16.9384 15.4103 16.473C14.8024 16.0249 14.0386 15.6157 13.283 15.3682C13.1148 15.3131 12.9452 15.2638 12.7741 15.2201C12.2492 15.0862 11.7102 15.006 11.1578 14.9796C11.023 14.9731 10.8872 14.9697 10.7506 14.9697C10.6342 14.9697 10.5185 14.9721 10.4034 14.977C9.82953 15.0001 9.27045 15.0811 8.72614 15.22C8.55493 15.2637 8.38525 15.3131 8.21704 15.3682C7.4613 15.6157 6.77954 15.9635 6.17169 16.4117C5.55981 16.877 4.98352 17.4763 4.60681 18.0868C4.37616 18.4744 4.15503 18.9513 4.03583 19.3654C3.76697 19.2424 3.52332 19.1003 3.30493 18.939C3.19495 18.8578 3.09027 18.7708 2.99091 18.6782C2.72601 18.431 2.49908 18.1432 2.31006 17.8147C1.77002 16.8761 1.5 15.5212 1.5 13.75L1.5 7.75C1.5 6.5607 1.61975 5.56445 1.85931 4.76123C2.08881 3.99182 2.4375 3.3732 2.90533 2.90533C3.37317 2.43747 3.99182 2.08881 4.76123 1.85934C5.56445 1.61978 6.56073 1.5 7.75 1.5L13.75 1.5C14.9393 1.5 15.9355 1.61978 16.7388 1.85934C17.5082 2.08881 18.1268 2.43747 18.5947 2.90533C19.0625 3.3732 19.4112 3.99182 19.6407 4.76123C19.8802 5.56445 20 6.5607 20 7.75L20 13.75C20 15.5212 19.73 16.8761 19.1899 17.8147C19.0009 18.1432 18.774 18.431 18.5091 18.6781C18.4098 18.7708 18.305 18.8578 18.1951 18.939ZM10.7499 13.67C10.4297 13.67 10.117 13.6361 9.81177 13.5685C9.5567 13.5119 9.30682 13.4317 9.06226 13.3279C8.81964 13.2249 8.59003 13.1021 8.37347 12.9594C8.12756 12.7975 7.89844 12.6099 7.68616 12.3968C7.47919 12.1891 7.29651 11.9653 7.138 11.7255C6.99109 11.5033 6.86505 11.2672 6.75983 11.0175C6.65662 10.7725 6.5769 10.5224 6.52069 10.2671C6.46216 10.0012 6.42914 9.72971 6.42163 9.45258C6.42053 9.41187 6.41992 9.371 6.41992 9.32999C6.41992 9.28867 6.42053 9.2475 6.42169 9.20645C6.42938 8.92453 6.4635 8.64853 6.52399 8.37845C6.58002 8.12842 6.65875 7.88339 6.76001 7.64352C6.86481 7.39532 6.9903 7.1608 7.13647 6.93994C7.29553 6.69949 7.47913 6.47522 7.68719 6.26718C7.89526 6.05911 8.11951 5.87552 8.35999 5.71643C8.58081 5.57031 8.81531 5.44485 9.06354 5.34003C9.30341 5.23874 9.54834 5.16006 9.7984 5.10403C10.094 5.03778 10.3966 5.00317 10.7064 5.00021C11.0187 5.00269 11.4037 5.03726 11.7016 5.10403C11.9516 5.16006 12.1966 5.23874 12.4365 5.34003C12.6846 5.44482 12.9191 5.57028 13.14 5.7164C13.3805 5.87552 13.6047 6.05911 13.8128 6.26718C14.0209 6.47528 14.2045 6.69958 14.3636 6.94009C14.5097 7.16092 14.6352 7.39539 14.74 7.64352C14.8413 7.88342 14.92 8.12839 14.976 8.37842C15.0453 8.68784 15.08 9.00504 15.08 9.32999C15.08 9.64978 15.0464 9.96216 14.9793 10.2672C14.9231 10.5224 14.8434 10.7726 14.7402 11.0175C14.6349 11.2672 14.5089 11.5032 14.362 11.7255C14.2035 11.9653 14.0208 12.1891 13.8138 12.3968C13.6016 12.6099 13.3724 12.7975 13.1265 12.9594C12.91 13.1021 12.6804 13.2249 12.4377 13.3279C12.1932 13.4317 11.9433 13.5119 11.6882 13.5685C11.383 13.6362 11.0702 13.67 10.7499 13.67ZM7.92126 9.24384C7.96667 7.73328 9.20276 6.51569 10.7206 6.50015C12.2695 6.51321 13.58 7.77811 13.58 9.32999C13.58 10.9 12.31 12.17 10.75 12.17C9.22528 12.17 7.97754 10.9568 7.92188 9.436C7.92059 9.40082 7.92126 9.27933 7.92126 9.24384ZM12.8161 16.7937C12.7263 16.7643 12.6359 16.7368 12.5449 16.7114C12.1103 16.591 11.6492 16.5125 11.1891 16.4837C11.0441 16.4745 10.8976 16.47 10.75 16.47C10.6226 16.47 10.4961 16.4734 10.3705 16.4802C9.47388 16.5298 8.6322 16.7534 7.90363 17.1095C7.5799 17.2681 7.27795 17.4539 6.99774 17.667C6.51514 18.034 6.13239 18.4551 5.84961 18.9302C5.74774 19.1014 5.66125 19.2757 5.59021 19.4532C5.54401 19.5699 5.50403 19.6889 5.47064 19.8098C6.13062 19.9398 6.88062 19.9998 7.75061 19.9998L13.7506 19.9998C14.6206 19.9998 15.3706 19.9398 16.0306 19.8098C15.9465 19.5079 15.8198 19.2147 15.6504 18.9302C15.3676 18.4551 14.9849 18.034 14.5023 17.667C14.0079 17.2911 13.4459 17 12.8161 16.7937Z" fill-rule="evenodd"/>
    </symbol>

    <symbol viewBox="0 0 24 24" id="income">
    	<path id="Vector 3" d="M17.1854 10.4223C17.2905 10.4611 17.4813 10.5217 17.5896 10.5365C17.6557 10.5454 17.7226 10.5499 17.7899 10.5499L19.733 10.5499C19.7759 10.5472 19.8149 10.5369 19.8501 10.5189C19.8768 10.4917 19.9705 10.4068 19.9831 10.3742L20 8.21994C19.9874 8.18732 19.9509 8.06326 19.9243 8.03607C19.8892 8.01816 19.776 7.95273 19.7332 7.95001L17.67 7.95001C17.5367 7.95001 17.4092 7.96869 17.2874 8.00607C17.2475 8.01834 17.2082 8.03259 17.1695 8.04886C17.0963 8.07962 17.0274 8.11667 16.9627 8.16003C16.8926 8.20703 16.8275 8.26141 16.7673 8.32321C16.6945 8.39429 16.6183 8.48508 16.5654 8.56873C16.5201 8.64047 16.4821 8.71689 16.4515 8.79791C16.441 8.83173 16.4064 8.9408 16.399 8.97522C16.3727 9.09753 16.3651 9.22388 16.3762 9.35426C16.3855 9.45595 16.4083 9.56853 16.4418 9.66153C16.4598 9.71164 16.4813 9.7605 16.5064 9.80809C16.571 9.91805 16.6809 10.0689 16.7794 10.159C16.8179 10.1915 16.9012 10.26 16.9427 10.2883C17.0163 10.3378 17.1027 10.3862 17.1854 10.4223ZM10.2516 16.1404L10.2516 11.36C10.2516 11.1266 10.2292 10.8977 10.1844 10.6732C10.1263 10.3817 10.0305 10.0977 9.89691 9.82118C9.84851 9.72105 9.7959 9.62346 9.73901 9.52838C9.53235 9.18277 9.26965 8.87051 8.95111 8.5918C8.8385 8.49472 8.7215 8.40387 8.60016 8.31921C8.28961 8.10257 7.95062 7.92651 7.58337 7.79123C7.41382 7.72876 7.24182 7.67636 7.06732 7.63397C6.69965 7.54468 6.32098 7.5 5.93158 7.5C5.52954 7.5 5.13922 7.54724 4.76074 7.64169C4.59784 7.68237 4.43707 7.73181 4.27856 7.78995C3.89783 7.93033 3.51807 8.12628 3.20099 8.35492C3.09241 8.43326 2.98737 8.51691 2.88623 8.60559C2.56293 8.88846 2.29736 9.20551 2.0896 9.55672C2.03851 9.64319 1.98975 9.73383 1.94568 9.82442C1.81537 10.0922 1.72089 10.3675 1.66223 10.6501C1.61414 10.8818 1.59009 11.1184 1.59009 11.36C1.59009 11.4552 1.59393 11.5494 1.60156 11.6428L1.60156 14.1095L1.60156 16.1404C1.60156 16.3756 1.62439 16.6061 1.6701 16.8321C1.72894 17.1222 1.82574 17.4062 1.95996 17.681C2.00909 17.7817 2.06256 17.8798 2.12024 17.9753C2.32831 18.3195 2.5921 18.6301 2.9115 18.9071C3.00616 18.9891 3.104 19.0668 3.20502 19.14C3.53076 19.3759 3.89026 19.5663 4.28253 19.7104C4.45483 19.7737 4.6297 19.8266 4.80701 19.8692C5.17133 19.9567 5.54626 20.0004 5.93158 20.0004C6.32336 20.0004 6.70404 19.9552 7.07361 19.8648C7.24445 19.8229 7.41345 19.7713 7.57959 19.7102C7.96967 19.5666 8.32666 19.3774 8.65057 19.1425C8.75293 19.0683 8.85199 18.9895 8.94775 18.9061C9.26202 18.6326 9.52216 18.3262 9.72809 17.9869C9.78851 17.8873 9.84436 17.7849 9.89545 17.6797C10.0275 17.4078 10.1228 17.1285 10.1814 16.8417C10.2281 16.6127 10.2516 16.3789 10.2516 16.1404ZM3.9682 9.66148C4.20416 9.47116 4.47162 9.31976 4.77051 9.20734C4.80292 9.1955 4.84003 9.18253 4.8728 9.17175C5.20081 9.06393 5.54657 9.01001 5.91003 9.01001C6.21039 9.01001 6.50031 9.04816 6.77979 9.12445C6.86859 9.14871 6.95654 9.17682 7.04327 9.20877C7.3255 9.31274 7.5813 9.45157 7.81073 9.62524C7.8584 9.66133 7.90515 9.69911 7.95056 9.73822C8.20288 9.94858 8.39716 10.1883 8.53345 10.4574C8.60736 10.6079 8.67249 10.7848 8.70654 10.9438C8.7356 11.0794 8.75012 11.2182 8.75012 11.36C8.75012 11.5055 8.73401 11.6472 8.70184 11.7851C8.65759 11.9746 8.58307 12.1569 8.47815 12.3322C8.25848 12.659 7.89624 13.0004 7.49023 13.202C7.02991 13.4252 6.48846 13.55 5.92004 13.55C5.38116 13.55 4.88916 13.4478 4.44409 13.2434C4.0296 13.0367 3.61859 12.7215 3.39709 12.3869C3.30304 12.2301 3.19556 12.0072 3.15082 11.8374C3.12793 11.7504 3.11151 11.6616 3.10156 11.5712L3.10156 11.36C3.10156 11.2357 3.11279 11.1134 3.13519 10.9933C3.16821 10.8168 3.22565 10.6438 3.30701 10.4763C3.44165 10.2168 3.73083 9.86771 3.9682 9.66148ZM6.54584 16.2518C6.73029 16.2218 6.90961 16.1778 7.0838 16.1198C7.42773 16.0054 7.72797 15.8448 7.9845 15.6379C8.23175 15.4384 8.42102 15.2096 8.55219 14.9514C8.60712 14.8433 8.6507 14.732 8.68298 14.6174C8.72168 14.4797 8.74414 14.3366 8.75 14.1896C8.56586 14.3221 8.36835 14.4408 8.15741 14.5455C8.05298 14.5974 7.9469 14.6452 7.83917 14.6891C7.2486 14.9296 6.60852 15.05 5.92004 15.05C5.26178 15.05 4.64691 14.9386 4.0755 14.7158C3.94183 14.6637 3.81036 14.6054 3.68152 14.5411C3.4762 14.4387 3.28351 14.3232 3.10339 14.1947C3.10944 14.336 3.13086 14.4731 3.16766 14.6059C3.20032 14.7238 3.24506 14.8385 3.30182 14.9496C3.43372 15.2079 3.62396 15.4368 3.87256 15.6366C4.13043 15.8438 4.43207 16.0047 4.77734 16.1193C5.14038 16.2397 5.52515 16.3 5.93158 16.3C6.1424 16.3 6.34717 16.2839 6.54584 16.2518ZM6.79041 17.7319C7.02478 17.6937 7.25415 17.6396 7.47852 17.5695C7.82062 17.4563 8.21405 17.2855 8.50385 17.1069C8.37079 17.354 8.19049 17.5766 7.96295 17.7747C7.72357 17.9663 7.36481 18.1909 7.0614 18.3025C6.97797 18.3332 6.89349 18.3604 6.80804 18.384C6.52661 18.4616 6.23444 18.5004 5.93158 18.5004C5.63507 18.5004 5.34857 18.4632 5.07208 18.3888C4.98022 18.3641 4.88934 18.3353 4.79968 18.3023C4.49365 18.1899 4.21991 18.0371 3.97845 17.844C3.75024 17.6461 3.48505 17.3538 3.35138 17.1075C3.64197 17.2861 3.95886 17.4321 4.30206 17.5452C4.80389 17.705 5.37878 17.8004 5.93158 17.8004C6.22485 17.8004 6.51117 17.7776 6.79041 17.7319ZM0 5.75L0 7.75C0 8.17001 0.330017 8.5 0.75 8.5C1.16998 8.5 1.5 8.17001 1.5 7.75L1.5 5.75C1.5 5.16034 1.58521 4.61652 1.75568 4.1185C1.9043 3.68427 2.11328 3.2981 2.38257 2.95996C2.4845 2.84039 2.67023 2.63501 2.78589 2.5307C3.01514 2.32391 3.27142 2.14709 3.55475 2.00021C3.9967 1.77109 4.48956 1.62241 5.03339 1.55417C5.25562 1.51999 5.50824 1.5 5.75 1.5L14.75 1.5C15.0087 1.5 15.2176 1.51328 15.3767 1.53979C15.9275 1.60382 16.4639 1.7551 16.9126 1.98325C17.2037 2.13123 17.4667 2.31049 17.7018 2.521C17.816 2.62326 17.9237 2.73294 18.0247 2.85001C18.0564 2.88672 18.0873 2.92401 18.1174 2.96191C18.384 3.29694 18.5916 3.67899 18.74 4.10803C18.9133 4.6091 19 5.15643 19 5.75L19 6.45001L17.67 6.45001C17.436 6.45001 17.2089 6.47751 16.9886 6.53253C16.8525 6.56656 16.7189 6.61108 16.588 6.66614C16.4213 6.73624 16.2645 6.82101 16.1176 6.92044C15.9678 7.02176 15.8284 7.13831 15.6992 7.27005C15.1546 8.74933 14.8824 9.49126 14.8829 9.49585C14.8943 9.62561 14.917 9.77225 14.9473 9.89743C15.0005 10.1169 15.0828 10.3294 15.194 10.5349C15.2449 10.6288 15.3008 10.7192 15.3617 10.806C15.4944 10.9887 15.6764 11.1923 15.8548 11.343C15.9628 11.4341 16.076 11.5168 16.1945 11.5911C16.2953 11.6507 16.4654 11.7442 16.5736 11.792C16.6312 11.8174 16.6898 11.8411 16.7496 11.8632C16.9386 11.933 17.1307 11.9833 17.3258 12.014C17.4786 12.038 17.6334 12.05 17.79 12.05L19 12.05L19 12.75C19 13.3988 18.8969 13.9914 18.6906 14.5276C18.536 14.9295 18.3283 15.2872 18.0674 15.6006C17.9971 15.6852 17.9228 15.7665 17.8447 15.8447C17.7665 15.9228 17.6852 15.997 17.6006 16.0674C17.2872 16.3283 16.9296 16.536 16.5276 16.6906C15.9914 16.8969 15.3989 17 14.75 17L12.25 17C11.83 17 11.5 17.33 11.5 17.75C11.5 18.17 11.83 18.5 12.25 18.5L14.75 18.5C15.5845 18.5 16.3566 18.3635 17.0661 18.0906C17.567 17.898 18.0203 17.644 18.4259 17.3287C18.5939 17.1981 18.7537 17.057 18.9053 16.9053C19.0569 16.7537 19.1981 16.5939 19.3287 16.4259C19.644 16.0203 19.8979 15.5671 20.0906 15.0661C20.3635 14.3565 20.5 13.5845 20.5 12.75L20.5 11.8703C20.5866 11.8283 20.6688 11.7801 20.7465 11.7255C20.8354 11.6631 20.9185 11.5925 20.9957 11.5136C21.0805 11.427 21.1551 11.3339 21.2194 11.2341C21.2756 11.1469 21.324 11.0547 21.3646 10.9574C21.4072 10.8556 21.4396 10.7516 21.4622 10.6455C21.4874 10.5263 21.5 10.4045 21.5 10.28L21.5 8.21994C21.5 8.09549 21.4874 7.97369 21.4622 7.85458C21.4396 7.74847 21.4072 7.64447 21.3647 7.54257C21.3241 7.44531 21.2757 7.35309 21.2195 7.2659C21.1552 7.16614 21.0806 7.07294 20.9957 6.98636C20.9185 6.90747 20.8354 6.83682 20.7465 6.77441C20.6688 6.71988 20.5866 6.67163 20.5 6.6297L20.5 5.75C20.5 4.98831 20.3859 4.27753 20.1575 3.61758C19.9775 3.09741 19.7325 2.62482 19.4222 2.19974C19.3395 2.08643 19.2523 1.97653 19.1603 1.87C18.9954 1.67886 18.8183 1.5018 18.6292 1.33881C18.3167 1.06955 17.9711 0.838654 17.5924 0.646118C16.989 0.339294 16.3262 0.142944 15.6044 0.0570984C15.3673 0.019043 15.0825 0 14.75 0L5.75 0C5.43542 0 5.13086 0.0223694 4.8363 0.0671387C4.11926 0.158234 3.46191 0.358704 2.86432 0.668549C2.49426 0.860413 2.15631 1.08929 1.85059 1.35513C1.66058 1.52032 1.48303 1.69977 1.31793 1.89349C1.2326 1.99362 1.15131 2.09668 1.0741 2.2027C0.762024 2.63116 0.516174 3.10785 0.336487 3.63275C0.112183 4.28821 0 4.99396 0 5.75Z" fill-rule="evenodd"/>
    </symbol>

    <symbol viewBox="0 0 24 24" id="promote">
    	<path id="Vector 4" d="M10.75 21.47C10.12 21.47 9.53003 21.2301 9.09003 20.7801L7.57001 19.2601C7.45001 19.1401 7.13 19.0101 6.96997 19.0101L4.81 19.0101C3.51001 19.0101 2.45996 17.96 2.45996 16.66L2.45996 14.5001C2.45996 14.3401 2.33002 14.0201 2.20996 13.9001L0.690002 12.3801C0.25 11.9401 0 11.35 0 10.72C0 10.09 0.23999 9.50003 0.690002 9.06003L2.20996 7.54001C2.33002 7.42001 2.45996 7.10004 2.45996 6.94003L2.45996 4.78012C2.45996 3.48012 3.51001 2.43002 4.81 2.43002L6.96997 2.43002C7.13 2.43002 7.45001 2.30002 7.57001 2.18002L9.09003 0.660004C9.96997 -0.220001 11.53 -0.220001 12.41 0.660004L13.93 2.18002C14.05 2.30002 14.37 2.43002 14.53 2.43002L16.69 2.43002C17.99 2.43002 19.04 3.48012 19.04 4.78012L19.04 6.94003C19.04 7.10004 19.17 7.42001 19.29 7.54001L20.81 9.06003C21.25 9.50003 21.5 10.09 21.5 10.72C21.5 11.35 21.26 11.9401 20.81 12.3801L19.29 13.9001C19.17 14.0201 19.04 14.3401 19.04 14.5001L19.04 16.66C19.04 17.96 17.99 19.0101 16.69 19.0101L14.53 19.0101C14.37 19.0101 14.05 19.1401 13.93 19.2601L12.41 20.7801C11.97 21.2301 11.38 21.47 10.75 21.47ZM3.27002 12.84C3.66998 13.24 3.95996 13.9401 3.95996 14.5001L3.95996 16.66C3.95996 17.13 4.34003 17.5101 4.81 17.5101L6.96997 17.5101C7.53003 17.5101 8.22998 17.8 8.63 18.2L10.15 19.72C10.47 20.04 11.03 20.04 11.35 19.72L12.87 18.2C13.27 17.8 13.97 17.5101 14.53 17.5101L16.69 17.5101C17.16 17.5101 17.54 17.13 17.54 16.66L17.54 14.5001C17.54 13.9401 17.83 13.24 18.23 12.84L19.75 11.32C19.91 11.16 20 10.95 20 10.72C20 10.49 19.91 10.2801 19.75 10.1201L18.23 8.60007C17.83 8.20007 17.54 7.50003 17.54 6.94003L17.54 4.78012C17.54 4.31012 17.16 3.93002 16.69 3.93002L14.53 3.93002C13.97 3.93002 13.27 3.64008 12.87 3.24008L11.35 1.72006C11.03 1.40005 10.47 1.40005 10.15 1.72006L8.63 3.24008C8.22998 3.64008 7.53003 3.93002 6.96997 3.93002L4.81 3.93002C4.34003 3.93002 3.95996 4.31012 3.95996 4.78012L3.95996 6.94003C3.95996 7.50003 3.66998 8.20007 3.27002 8.60007L1.75 10.1201C1.59003 10.2801 1.5 10.49 1.5 10.72C1.5 10.95 1.59003 11.16 1.75 11.32L3.27002 12.84ZM7.76001 8.71973C7.20001 8.71973 6.75 8.26973 6.75 7.71973C6.75 7.16972 7.20001 6.71973 7.75 6.71973C8.29999 6.71973 8.75 7.16972 8.75 7.71973C8.75 8.26973 8.31 8.71973 7.76001 8.71973ZM7.21942 14.2492C7.36945 14.3992 7.55945 14.4692 7.74945 14.4692C7.93945 14.4692 8.12946 14.3992 8.27942 14.2492L14.2795 8.24924C14.5695 7.95924 14.5695 7.47919 14.2795 7.18918C13.9895 6.89919 13.5095 6.89919 13.2195 7.18918L7.21942 13.1892C6.92944 13.4792 6.92944 13.9592 7.21942 14.2492ZM12.7402 13.7197C12.7402 14.2697 13.1902 14.7197 13.7502 14.7197C14.3002 14.7197 14.7402 14.2697 14.7402 13.7197C14.7402 13.1697 14.2902 12.7197 13.7402 12.7197C13.1902 12.7197 12.7402 13.1697 12.7402 13.7197Z"  fill-rule="evenodd"/>
    </symbol>

    <symbol viewBox="0 0 24 24" id="help">
	    <path id="Vector 5" d="M5.91998 20.42C6.17999 20.56 6.46997 20.63 6.75 20.63C7.09003 20.63 7.42999 20.5301 7.71997 20.3401L11.98 17.5L15.75 17.5C19.19 17.5 21.5 15.19 21.5 11.75L21.5 5.75C21.5 2.31 19.19 0 15.75 0L5.75 0C2.31 0 0 2.31 0 5.75L0 11.75C0 14.93 1.97998 17.1501 5 17.4601L5 18.88C5 19.52 5.34998 20.12 5.91998 20.42ZM1.5 5.73999C1.5 3.15999 3.16998 1.48999 5.75 1.48999L15.76 1.48999C18.34 1.48999 20.01 3.15999 20.01 5.73999L20.01 11.7401C20.01 14.3201 18.34 15.9901 15.76 15.9901L11.76 15.9901C11.61 15.9901 11.46 16.0401 11.34 16.1201L6.89001 19.0801C6.78003 19.1501 6.67999 19.1201 6.63 19.0901C6.58002 19.0601 6.5 19.0001 6.5 18.8701L6.5 16.7401C6.5 16.3301 6.15997 15.9901 5.75 15.9901C3.16998 15.9901 1.5 14.3201 1.5 11.7401L1.5 5.73999ZM10.7498 10.42C10.3398 10.42 9.99982 10.08 9.99982 9.66995L9.99982 9.45996C9.99982 8.29996 10.8498 7.72995 11.1698 7.50995C11.5398 7.25995 11.6598 7.08995 11.6598 6.82996C11.6598 6.32996 11.2498 5.91992 10.7498 5.91992C10.2498 5.91992 9.83978 6.32996 9.83978 6.82996C9.83978 7.23996 9.49982 7.57996 9.08978 7.57996C8.67981 7.57996 8.33984 7.23996 8.33984 6.82996C8.33984 5.49995 9.4198 4.41992 10.7498 4.41992C12.0798 4.41992 13.1598 5.49995 13.1598 6.82996C13.1598 7.96996 12.3198 8.53996 12.0098 8.74995C11.6198 9.00996 11.4998 9.17996 11.4998 9.45996L11.4998 9.66995C11.4998 10.09 11.1598 10.42 10.7498 10.42ZM10 12.1602C10 12.5702 10.33 12.9102 10.75 12.9102C11.17 12.9102 11.5 12.5702 11.5 12.1602C11.5 11.7502 11.16 11.4102 10.75 11.4102C10.34 11.4102 10 11.7502 10 12.1602Z" fill-rule="evenodd"/>
    </symbol>

    <symbol viewBox="0 0 16 16" id="arrow">
	    <rect id="chevron-right 2" width="16.000000" height="16.000000" fill="#9197B3" fill-opacity="0"/>
        <g>
            <path id="Vector (Border)" d="M6.70712 3.29291C6.31113 2.89691 5.68887 2.89691 5.29291 3.29291C4.89691 3.68887 4.89691 4.31113 5.29291 4.70712L8.58578 8L5.29291 11.2929C4.89691 11.6889 4.89691 12.3111 5.29291 12.7071C5.68887 13.1031 6.31113 13.1031 6.70712 12.7071L10.7071 8.70712C10.9024 8.51184 11 8.27615 11 8C11 7.72385 10.9024 7.48816 10.7071 7.29291L6.70712 3.29291Z" fill-rule="evenodd"/>
        </g>

    </symbol>

    <symbol viewBox="0 0 24 24" id="search">
    	<path id="Vector 6" d="M9 18C8.33167 18 7.67905 17.9292 7.04214 17.7877C6.5162 17.6708 6.00098 17.5057 5.49649 17.2923C4.98761 17.0771 4.50629 16.82 4.05252 16.5211C3.54602 16.1875 3.07388 15.8018 2.63605 15.364C2.19824 14.9261 1.81253 14.454 1.47894 13.9476C1.18002 13.4938 0.922913 13.0124 0.707672 12.5035C0.494293 11.999 0.329163 11.4838 0.21228 10.9578C0.0707703 10.321 0 9.6683 0 9C0 8.3317 0.0707703 7.67908 0.21228 7.04221C0.329163 6.51624 0.494293 6.00101 0.707672 5.49649C0.922913 4.98758 1.17999 4.50623 1.47891 4.05243C1.8125 3.54599 2.19821 3.07385 2.63605 2.63605C3.07385 2.19821 3.54599 1.8125 4.05246 1.47891C4.50623 1.17999 4.98758 0.922913 5.49649 0.707672C6.00101 0.494263 6.51624 0.329132 7.04221 0.21228C7.67908 0.0707703 8.3317 0 9 0C9.66833 0 10.3209 0.0707703 10.9578 0.21228C11.4838 0.329163 11.999 0.494293 12.5035 0.707672C13.0124 0.922913 13.4938 1.18002 13.9476 1.47894C14.454 1.81253 14.9261 2.19824 15.364 2.63605C15.8018 3.07388 16.1876 3.54608 16.5212 4.05258C16.82 4.50635 17.0771 4.98764 17.2923 5.49649C17.5057 6.00101 17.6709 6.51627 17.7877 7.04224C17.9292 7.67911 18 8.3317 18 9C18 9.66833 17.9292 10.321 17.7877 10.9579C17.6709 11.4838 17.5057 11.999 17.2923 12.5035C17.0771 13.0124 16.82 13.4937 16.5211 13.9475C16.3691 14.1783 16.2063 14.4019 16.0327 14.6184L19.7071 18.2928C20.1031 18.6888 20.1031 19.3111 19.7071 19.7071C19.3111 20.103 18.6889 20.103 18.2929 19.7071L14.6185 16.0326C14.4019 16.2063 14.1783 16.3691 13.9474 16.5211C13.4937 16.82 13.0124 17.0771 12.5035 17.2923C11.999 17.5057 11.4837 17.6709 10.9578 17.7877C10.3209 17.9292 9.6683 18 9 18ZM14.0434 13.8544C14.3508 13.5355 14.6236 13.1941 14.8619 12.83C15.0896 12.4821 15.2857 12.1136 15.4503 11.7244C15.6111 11.3444 15.7365 10.9563 15.8268 10.5602C15.9422 10.0533 16 9.53317 16 9C16 8.46683 15.9423 7.94678 15.8268 7.43988C15.7366 7.04376 15.6111 6.65567 15.4503 6.2756C15.2857 5.88644 15.0896 5.51794 14.8619 5.17007C14.5997 4.76941 14.2956 4.39612 13.9497 4.05026C13.6039 3.70441 13.2306 3.40036 12.83 3.13815C12.4821 2.91046 12.1136 2.71429 11.7244 2.54968C11.3444 2.38895 10.9563 2.26346 10.5602 2.17322C10.0533 2.05777 9.53317 2 9 2C8.46683 2 7.94681 2.05774 7.43994 2.17319C7.04379 2.26343 6.65567 2.38892 6.2756 2.54968C5.88644 2.71426 5.51794 2.9104 5.17007 3.13809C4.76944 3.40033 4.39615 3.70438 4.05026 4.05026C3.70438 4.39612 3.40033 4.76938 3.13812 5.17001C2.91043 5.51788 2.71429 5.88641 2.54968 6.2756C2.38892 6.65567 2.26343 7.04376 2.17319 7.43991C2.05774 7.94678 2 8.46683 2 9C2 9.53317 2.05774 10.0532 2.17319 10.5601C2.26343 10.9562 2.38895 11.3443 2.54968 11.7244C2.71429 12.1136 2.91043 12.4821 3.13812 12.83C3.40033 13.2306 3.70438 13.6039 4.05026 13.9497C4.39615 14.2956 4.76941 14.5997 5.17004 14.8619C5.51791 15.0896 5.88644 15.2857 6.2756 15.4503C6.65567 15.6111 7.04376 15.7366 7.43988 15.8268C7.94675 15.9423 8.46683 16 9 16C9.53317 16 10.0532 15.9423 10.5601 15.8268C10.9562 15.7366 11.3443 15.6111 11.7244 15.4503C12.1136 15.2857 12.4821 15.0895 12.83 14.8618C13.1941 14.6235 13.5356 14.3507 13.8544 14.0433C13.8813 14.0085 13.9108 13.9749 13.9429 13.9428C13.975 13.9108 14.0086 13.8813 14.0434 13.8544Z"  fill-rule="evenodd"/>
    </symbol>
</svg>


<svg width="16.000000" height="16.000000" viewBox="0 0 16 16" fill="none" xmlns="http://www.w3.org/2000/svg" xmlns:xlink="http://www.w3.org/1999/xlink">

	<defs>
		<clipPath id="clip501_139">
			<rect id="chevron-right 2" width="16.000000" height="16.000000" fill="white" fill-opacity="0"/>
		</clipPath>
	</defs>
	<rect id="chevron-right 2" width="16.000000" height="16.000000" fill="#9197B3" fill-opacity="0"/>
	<g clip-path="url(#clip501_139)">
		<path id="Vector (Border)" d="M6.70712 3.29291C6.31113 2.89691 5.68887 2.89691 5.29291 3.29291C4.89691 3.68887 4.89691 4.31113 5.29291 4.70712L8.58578 8L5.29291 11.2929C4.89691 11.6889 4.89691 12.3111 5.29291 12.7071C5.68887 13.1031 6.31113 13.1031 6.70712 12.7071L10.7071 8.70712C10.9024 8.51184 11 8.27615 11 8C11 7.72385 10.9024 7.48816 10.7071 7.29291L6.70712 3.29291Z" fill="#9197B3" fill-opacity="1.000000" fill-rule="evenodd"/>
	</g>
</svg>
